<svg xmlns="http://www.w3.org/2000/svg" viewBox="0 0 807.55 224.15"><defs><style>.cls-1{isolation:isolate;}.cls-2{fill:#152718;}.cls-3{fill:#574434;}.cls-4{fill:#413226;}.cls-5{fill:#7d5546;}.cls-6{fill:#222323;}.cls-7{fill:#f0f2f6;}.cls-8{fill:#b4bfd0;}.cls-9{fill:#1d1d1b;}.cls-10{fill:#575756;}.cls-11{fill:#242930;}.cls-12{fill:#14222c;}.cls-13{fill:#185226;}.cls-14{fill:#193d1e;}.cls-15{fill:#1e1e1c;opacity:0.3;mix-blend-mode:overlay;}</style></defs><title>AF2_trees</title><g class="cls-1"><g id="Layer_1" data-name="Layer 1"><path class="cls-2" d="M13.22,81h0a35.57,35.57,0,0,1-9-23.3c0-22.19,21.65-40.18,48.37-40.18.39,0,.77,0,1.17.05C62,7,76.27,0,92.53,0c18.87,0,35.06,9.39,42.27,22.84,28.9,6.27,50.27,28.05,50.27,54,0,14.28-6.51,27.27-17.12,37.15a39.67,39.67,0,0,1,.29,4.77c0,27-26.36,48.92-58.88,48.92-3.55,0-17.66-.27-21-.77l-1.43-12.1a68.27,68.27,0,0,1-28,5.88C26.36,160.72,0,138.82,0,111.8,0,100.1,5,89.37,13.22,81Z"/><path class="cls-3" d="M90.45,150.24l.59,0,5.62,66.4H59.43l5.5-65c.2-2.33,4.33-4,8.2-3.18A83.93,83.93,0,0,0,90.45,150.24Z"/><path class="cls-4" d="M64.93,151.65c.2-2.33,4.33-4,8.2-3.18a83.93,83.93,0,0,0,17.32,1.77l.59,0,5.62,66.4H78.05V159.74c0-1.5-1.71-2.84-4.25-3.31l-9.13-1.72Z"/><rect class="cls-5" x="363.94" y="135.98" width="14.29" height="11.2"/><rect class="cls-5" x="470.61" y="137.58" width="14.29" height="11.2"/><path class="cls-6" d="M161,26.4,127.25,96.74l-8,48.77H365.1a10.12,10.12,0,0,0,10.09-10.08v-53l44.16-56Z"/><path class="cls-6" d="M688.58,26.75l33.75,70.34,8,48.77H484.47a10.11,10.11,0,0,1-10.08-10.08v-53l-44.17-56Z"/><polygon class="cls-5" points="474.69 145.51 474.69 82.42 424.94 19.32 375.19 82.42 374.86 144.6 124.94 145.51 124.94 205.07 724.94 205.07 724.94 145.51 474.69 145.51"/><rect class="cls-7" x="144.84" y="147.84" width="22.98" height="28.29"/><rect class="cls-8" x="157.04" y="150.3" width="7.91" height="7.01"/><rect class="cls-8" x="157.04" y="166.64" width="7.91" height="7.01"/><rect class="cls-8" x="157.04" y="158.47" width="7.91" height="7.01"/><rect class="cls-8" x="147.7" y="150.3" width="7.91" height="7.01"/><rect class="cls-8" x="147.7" y="166.64" width="7.91" height="7.01"/><rect class="cls-8" x="147.7" y="158.47" width="7.91" height="7.01"/><rect class="cls-7" x="185.07" y="147.84" width="22.98" height="28.29"/><rect class="cls-8" x="197.27" y="150.3" width="7.91" height="7.01"/><rect class="cls-8" x="197.27" y="166.64" width="7.91" height="7.01"/><rect class="cls-8" x="197.27" y="158.47" width="7.91" height="7.01"/><rect class="cls-8" x="187.93" y="150.3" width="7.91" height="7.01"/><rect class="cls-8" x="187.93" y="166.64" width="7.91" height="7.01"/><rect class="cls-8" x="187.93" y="158.47" width="7.91" height="7.01"/><rect class="cls-7" x="164.95" y="147.84" width="22.98" height="28.29"/><rect class="cls-8" x="177.16" y="150.3" width="7.91" height="7.01"/><rect class="cls-8" x="177.16" y="166.64" width="7.91" height="7.01"/><rect class="cls-8" x="177.16" y="158.47" width="7.91" height="7.01"/><rect class="cls-8" x="167.81" y="150.3" width="7.91" height="7.01"/><rect class="cls-8" x="167.81" y="166.64" width="7.91" height="7.01"/><rect class="cls-8" x="167.81" y="158.47" width="7.91" height="7.01"/><rect class="cls-7" x="239.47" y="147.84" width="22.98" height="28.29"/><rect class="cls-8" x="251.68" y="150.3" width="7.91" height="7.01"/><rect class="cls-8" x="251.68" y="166.64" width="7.91" height="7.01"/><rect class="cls-8" x="251.68" y="158.47" width="7.91" height="7.01"/><rect class="cls-8" x="242.34" y="150.3" width="7.91" height="7.01"/><rect class="cls-8" x="242.34" y="166.64" width="7.91" height="7.01"/><rect class="cls-8" x="242.34" y="158.47" width="7.91" height="7.01"/><rect class="cls-7" x="293.88" y="147.84" width="22.98" height="28.29"/><rect class="cls-8" x="306.09" y="150.3" width="7.91" height="7.01"/><rect class="cls-8" x="306.09" y="166.64" width="7.91" height="7.01"/><rect class="cls-8" x="306.09" y="158.47" width="7.91" height="7.01"/><rect class="cls-8" x="296.74" y="150.3" width="7.91" height="7.01"/><rect class="cls-8" x="296.74" y="166.64" width="7.91" height="7.01"/><rect class="cls-8" x="296.74" y="158.47" width="7.91" height="7.01"/><rect class="cls-7" x="334.11" y="147.84" width="22.98" height="28.29"/><rect class="cls-8" x="346.32" y="150.3" width="7.91" height="7.01"/><rect class="cls-8" x="346.32" y="166.64" width="7.91" height="7.01"/><rect class="cls-8" x="346.32" y="158.47" width="7.91" height="7.01"/><rect class="cls-8" x="336.97" y="150.3" width="7.91" height="7.01"/><rect class="cls-8" x="336.97" y="166.64" width="7.91" height="7.01"/><rect class="cls-8" x="336.97" y="158.47" width="7.91" height="7.01"/><rect class="cls-7" x="313.99" y="147.84" width="22.98" height="28.29"/><rect class="cls-8" x="326.2" y="150.3" width="7.91" height="7.01"/><rect class="cls-8" x="326.2" y="166.64" width="7.91" height="7.01"/><rect class="cls-8" x="326.2" y="158.47" width="7.91" height="7.01"/><rect class="cls-8" x="316.86" y="150.3" width="7.91" height="7.01"/><rect class="cls-8" x="316.86" y="166.64" width="7.91" height="7.01"/><rect class="cls-8" x="316.86" y="158.47" width="7.91" height="7.01"/><rect class="cls-7" x="541.27" y="147.84" width="22.98" height="28.29"/><rect class="cls-8" x="553.47" y="150.3" width="7.91" height="7.01"/><rect class="cls-8" x="553.47" y="166.64" width="7.91" height="7.01"/><rect class="cls-8" x="553.47" y="158.47" width="7.91" height="7.01"/><rect class="cls-8" x="544.13" y="150.3" width="7.91" height="7.01"/><rect class="cls-8" x="544.13" y="166.64" width="7.91" height="7.01"/><rect class="cls-8" x="544.13" y="158.47" width="7.91" height="7.01"/><rect class="cls-7" x="521.15" y="147.84" width="22.98" height="28.29"/><rect class="cls-8" x="533.36" y="150.3" width="7.91" height="7.01"/><rect class="cls-8" x="533.36" y="166.64" width="7.91" height="7.01"/><rect class="cls-8" x="533.36" y="158.47" width="7.91" height="7.01"/><rect class="cls-8" x="524.01" y="150.3" width="7.91" height="7.01"/><rect class="cls-8" x="524.01" y="166.64" width="7.91" height="7.01"/><rect class="cls-8" x="524.01" y="158.47" width="7.91" height="7.01"/><rect class="cls-7" x="618.54" y="147.84" width="22.98" height="28.29"/><rect class="cls-8" x="630.74" y="150.3" width="7.91" height="7.01"/><rect class="cls-8" x="630.74" y="166.64" width="7.91" height="7.01"/><rect class="cls-8" x="630.74" y="158.47" width="7.91" height="7.01"/><rect class="cls-8" x="621.4" y="150.3" width="7.91" height="7.01"/><rect class="cls-8" x="621.4" y="166.64" width="7.91" height="7.01"/><rect class="cls-8" x="621.4" y="158.47" width="7.91" height="7.01"/><rect class="cls-7" x="598.42" y="147.84" width="22.98" height="28.29"/><rect class="cls-8" x="610.63" y="150.3" width="7.91" height="7.01"/><rect class="cls-8" x="610.63" y="166.64" width="7.91" height="7.01"/><rect class="cls-8" x="610.63" y="158.47" width="7.91" height="7.01"/><rect class="cls-8" x="601.28" y="150.3" width="7.91" height="7.01"/><rect class="cls-8" x="601.28" y="166.64" width="7.91" height="7.01"/><rect class="cls-8" x="601.28" y="158.47" width="7.91" height="7.01"/><path class="cls-9" d="M481.27,82.48l-47.19-60c-.7-3-2.93-6.15-9.34-6.07h0c-6.81-.08-8.91,3.5-9.45,6.63L368.5,82.48l5,3.83L420.68,25h0c2.64-1.94,6.4-1.63,8.16,0a.82.82,0,0,0,.45.26l47,61Z"/><path class="cls-10" d="M410,202a41.8,41.8,0,0,0-.79,4.28h15.87V202Z"/><path class="cls-10" d="M440.18,202a41.8,41.8,0,0,1,.79,4.28H425.11V202Z"/><path class="cls-7" d="M425.11,133.75c-15.88.25-15.64,13.42-15.64,13.42h31.28S441,134,425.11,133.75Z"/><rect class="cls-11" x="410.42" y="147.55" width="28.79" height="53.67"/><rect class="cls-7" x="424.42" y="149.03" width="1.37" height="50.53"/><path class="cls-8" d="M420.82,145.18l-6.31-5.7a11.64,11.64,0,0,0-3.29,6.09h9.35A3.73,3.73,0,0,1,420.82,145.18Z"/><path class="cls-8" d="M422.83,143.45,420.42,136a14.47,14.47,0,0,0-5.38,3l6.24,5.63A5.35,5.35,0,0,1,422.83,143.45Z"/><path class="cls-8" d="M425.11,142.93a5,5,0,0,1,1.22.15l2.38-7.41a16.19,16.19,0,0,0-3.59-.41,15.81,15.81,0,0,0-4,.51l2.39,7.41A5.19,5.19,0,0,1,425.11,142.93Z"/><path class="cls-8" d="M429.1,145.18l6.31-5.69a11.62,11.62,0,0,1,3.29,6.08h-9.35C429.27,145.44,429.19,145.31,429.1,145.18Z"/><path class="cls-8" d="M427.09,143.46,429.5,136a14.47,14.47,0,0,1,5.38,3l-6.24,5.63A5.49,5.49,0,0,0,427.09,143.46Z"/><path class="cls-12" d="M436.06,88.83c-.52-5.41-5.53-9.65-11.64-9.65s-11.12,4.24-11.64,9.65h0v23.36H436.1V88.83Z"/><rect class="cls-5" x="330.16" y="31.8" width="16.55" height="2.59" rx="1.01"/><rect class="cls-5" x="331.19" y="13.58" width="14.48" height="19.51"/><rect class="cls-6" x="330.16" y="12.28" width="16.55" height="2.59" rx="1.01"/><rect class="cls-5" x="496.07" y="31.8" width="16.55" height="2.59" rx="1.01"/><rect class="cls-5" x="497.11" y="13.58" width="14.48" height="19.51"/><rect class="cls-6" x="496.07" y="12.28" width="16.55" height="2.59" rx="1.01"/><path class="cls-13" d="M201.41,107.58h0a30.62,30.62,0,0,0,7.74-20c0-19.07-18.61-34.53-41.56-34.53-.34,0-.67,0-1,0C159.49,44,147.23,38,133.26,38c-16.21,0-30.13,8.07-36.32,19.63C72.1,63,53.75,81.75,53.75,104.07c0,12.27,5.59,23.43,14.7,31.92a37.14,37.14,0,0,0-.25,4.1c0,23.22,22.66,42,50.6,42,3,0,15.17-.22,18.07-.65l1.22-10.41a58.58,58.58,0,0,0,24.08,5.06c27.94,0,50.59-18.82,50.59-42C212.76,124,208.5,114.81,201.41,107.58Z"/><path class="cls-14" d="M134.54,167.1c-5.8,1.24-9.89.43-16.75-2.27-9.3-3.64-16-11.05-16.94-19.56a20.24,20.24,0,0,1,1.26-9.51,2.71,2.71,0,0,0-1.27-3.18c-8.88-6.05-14.57-15.22-14.57-25.51,0-13.35,9.56-24.82,23.29-30a3,3,0,0,0,2.2-3c-.12-1-.6-2-.19-3,11.46-26,45.85-22.07,55-18C155.94,38,136.36,38,133.26,38c-16.21,0-30.13,8.07-36.32,19.63C72.1,63,53.75,81.75,53.75,104.07c0,12.27,5.59,23.43,14.7,31.92a37.14,37.14,0,0,0-.25,4.1c0,23.22,22.66,42,50.6,42,3,0,15.17-.22,18.07-.65V168.19Z"/><path class="cls-3" d="M135,167.11h-.5l-4.83,57.05h32L157,168.33c-.17-2-3.73-3.44-7.06-2.74A72.07,72.07,0,0,1,135,167.11Z"/><path class="cls-4" d="M157,168.33c-.17-2-3.73-3.44-7.06-2.74A72.07,72.07,0,0,1,135,167.11h-.5l-4.83,57.05h16V175.28c0-1.29,1.47-2.44,3.65-2.85L157.2,171Z"/><path class="cls-13" d="M725.92,163.89c-33.65,4.93-45.31,3.4-50.24-17.32,0,0-25.63-5.75-14.12-36,0,0-17.86-16-1.66-46.2,11.66-21.74,36.17-10.86,36.17-10.86s4.28-22,29.93-21.7,31.68,12.5,31.68,12.5,21.26-6.91,35.07,11.51-3,34.85-3,34.85,17.75,6.49,17.76,20.07c0,17.83-13,25-19.63,25.84,0,0,6.37,19.27-8.32,28.42-18.48,11.51-42.12-2.68-42.12-2.68Z"/><path class="cls-3" d="M718.62,160.06h-.54l-5.15,60.86h34.12l-5-59.55c-.18-2.13-4-3.67-7.52-2.92A76.64,76.64,0,0,1,718.62,160.06Z"/><path class="cls-4" d="M742,161.36c-.18-2.13-4-3.67-7.52-2.92a76.64,76.64,0,0,1-15.88,1.62h-.54l-5.15,60.86H730V168.78c0-1.38,1.57-2.6,3.89-3l8.37-1.57Z"/><path class="cls-15" d="M785.41,48.6h0c-12.92-9.11-27.73-4.3-27.73-4.3s-6-12.17-31.68-12.5-29.93,21.7-29.93,21.7S671.56,42.62,659.9,64.36c-16.2,30.18,1.66,46.2,1.66,46.2-7.89,20.74,1.67,30,8.46,33.72-8.46-33.72,13.08-43.64,13.08-43.64s-15.76-29.75,26-29.75c0,0,7.35-30.73,45.31-17.6C754.42,53.29,762.42,47.45,785.41,48.6Z"/></g></g></svg>