<svg id="Layer_1" data-name="Layer 1" xmlns="http://www.w3.org/2000/svg" viewBox="0 0 739.6 168.05"><defs><style>.cls-1{fill:#f7f6f5;}.cls-2{fill:#575756;}.cls-3{fill:#3a3a39;}.cls-10,.cls-4{fill:#1d1d1b;}.cls-5{fill:#636262;}.cls-6{fill:#fcfbfb;}.cls-7{fill:#f0f2f6;stroke-width:0.5px;}.cls-17,.cls-7{stroke:#1d1d1b;}.cls-10,.cls-17,.cls-7{stroke-miterlimit:10;}.cls-17,.cls-8{fill:#b4bfd0;}.cls-9{fill:#061b1f;}.cls-10{stroke:#d0d0d0;}.cls-11{fill:#dadada;}.cls-12{fill:#264637;}.cls-13{fill:#28503a;}.cls-14{fill:#136666;}.cls-15{fill:#b1a99b;}.cls-16{fill:#353533;}</style></defs><title>Heimat</title><polygon class="cls-1" points="143.54 63.36 54.26 63.36 54.26 157.39 175.37 157.39 175.37 92.39 143.54 63.36"/><polygon class="cls-1" points="24.81 64.11 114.08 64.11 114.08 157.51 15.35 157.51 15.35 88.26 24.81 64.11"/><rect class="cls-2" x="15.5" y="154.6" width="177.94" height="3.29" transform="translate(208.94 312.49) rotate(-180)"/><polygon class="cls-3" points="89.74 11.26 31.76 65.34 95.97 64.11 147.15 64.11 89.74 11.26"/><polygon class="cls-1" points="693.92 75.3 601.46 75.3 601.46 158.25 726.88 158.25 726.88 100.91 693.92 75.3"/><rect class="cls-2" x="656.54" y="152.93" width="70.34" height="5.31"/><rect class="cls-4" x="613.76" y="62.06" width="139.1" height="4.42" transform="translate(1183.52 534.21) rotate(-142.16)"/><polygon class="cls-3" points="627.03 23.34 627.31 22.99 620.22 19.55 620.22 75.3 693.92 75.3 627.03 23.34"/><rect class="cls-1" x="340.59" y="105.8" width="12.64" height="9.91"/><rect class="cls-1" x="435.01" y="107.22" width="12.64" height="9.91"/><path class="cls-5" d="M161,8.82,131.11,71.08,124,114.24H341.62a9,9,0,0,0,8.93-8.92V58.4L389.64,8.82Z"/><path class="cls-5" d="M627.92,9.13l29.87,62.26,7.08,43.16H447.28a9,9,0,0,1-8.93-8.92V58.71L399.26,9.13Z"/><polygon class="cls-6" points="438.62 114.24 438.62 58.4 394.58 2.56 350.55 58.4 350.26 113.44 129.06 114.24 129.06 166.95 660.1 166.95 660.1 114.24 438.62 114.24"/><rect class="cls-7" x="149.49" y="119.49" width="14.07" height="24.79"/><rect class="cls-8" x="157.03" y="120.65" width="5.53" height="6.7"/><rect class="cls-8" x="157.03" y="136.26" width="5.53" height="6.7"/><rect class="cls-8" x="157.03" y="128.46" width="5.53" height="6.7"/><rect class="cls-8" x="150.49" y="120.65" width="5.53" height="6.7"/><rect class="cls-8" x="150.49" y="136.26" width="5.53" height="6.7"/><rect class="cls-8" x="150.49" y="128.46" width="5.53" height="6.7"/><path class="cls-4" d="M444.44,58.46,402.67,5.37c-.61-2.63-2.59-5.44-8.26-5.37h0c-6-.07-7.88,3.1-8.36,5.87L344.64,58.46,349,61.84,390.81,7.62h0c2.34-1.72,5.67-1.45,7.23,0,.17.16.3.23.4.22l41.61,54Z"/><rect class="cls-7" x="163.44" y="119.58" width="14.07" height="24.79"/><rect class="cls-8" x="170.97" y="120.74" width="5.53" height="6.7"/><rect class="cls-8" x="170.97" y="136.35" width="5.53" height="6.7"/><rect class="cls-8" x="170.97" y="128.54" width="5.53" height="6.7"/><rect class="cls-8" x="164.44" y="120.74" width="5.53" height="6.7"/><rect class="cls-8" x="164.44" y="136.35" width="5.53" height="6.7"/><rect class="cls-8" x="164.44" y="128.54" width="5.53" height="6.7"/><rect class="cls-7" x="198.25" y="119.53" width="14.07" height="24.79"/><rect class="cls-8" x="205.78" y="120.69" width="5.53" height="6.7"/><rect class="cls-8" x="205.78" y="136.31" width="5.53" height="6.7"/><rect class="cls-8" x="205.78" y="128.5" width="5.53" height="6.7"/><rect class="cls-8" x="199.25" y="120.69" width="5.53" height="6.7"/><rect class="cls-8" x="199.25" y="136.31" width="5.53" height="6.7"/><rect class="cls-8" x="199.25" y="128.5" width="5.53" height="6.7"/><rect class="cls-7" x="212.19" y="119.62" width="14.07" height="24.79"/><rect class="cls-8" x="219.73" y="120.78" width="5.53" height="6.7"/><rect class="cls-8" x="219.73" y="136.39" width="5.53" height="6.7"/><rect class="cls-8" x="219.73" y="128.59" width="5.53" height="6.7"/><rect class="cls-8" x="213.19" y="120.78" width="5.53" height="6.7"/><rect class="cls-8" x="213.19" y="136.39" width="5.53" height="6.7"/><rect class="cls-8" x="213.19" y="128.59" width="5.53" height="6.7"/><rect class="cls-7" x="300.09" y="119.37" width="14.07" height="24.79"/><rect class="cls-8" x="307.63" y="120.53" width="5.53" height="6.7"/><rect class="cls-8" x="307.63" y="136.14" width="5.53" height="6.7"/><rect class="cls-8" x="307.63" y="128.33" width="5.53" height="6.7"/><rect class="cls-8" x="301.1" y="120.53" width="5.53" height="6.7"/><rect class="cls-8" x="301.1" y="136.14" width="5.53" height="6.7"/><rect class="cls-8" x="301.1" y="128.33" width="5.53" height="6.7"/><rect class="cls-7" x="314.04" y="119.45" width="14.07" height="24.79"/><rect class="cls-8" x="321.58" y="120.61" width="5.53" height="6.7"/><rect class="cls-8" x="321.58" y="136.23" width="5.53" height="6.7"/><rect class="cls-8" x="321.58" y="128.42" width="5.53" height="6.7"/><rect class="cls-8" x="315.04" y="120.61" width="5.53" height="6.7"/><rect class="cls-8" x="315.04" y="136.23" width="5.53" height="6.7"/><rect class="cls-8" x="315.04" y="128.42" width="5.53" height="6.7"/><rect class="cls-7" x="249.17" y="119.58" width="14.07" height="24.79"/><rect class="cls-8" x="256.71" y="120.74" width="5.53" height="6.7"/><rect class="cls-8" x="256.71" y="136.35" width="5.53" height="6.7"/><rect class="cls-8" x="256.71" y="128.54" width="5.53" height="6.7"/><rect class="cls-8" x="250.17" y="120.74" width="5.53" height="6.7"/><rect class="cls-8" x="250.17" y="136.35" width="5.53" height="6.7"/><rect class="cls-8" x="250.17" y="128.54" width="5.53" height="6.7"/><rect class="cls-7" x="263.12" y="119.67" width="14.07" height="24.79"/><rect class="cls-8" x="270.65" y="120.83" width="5.53" height="6.7"/><rect class="cls-8" x="270.65" y="136.44" width="5.53" height="6.7"/><rect class="cls-8" x="270.65" y="128.63" width="5.53" height="6.7"/><rect class="cls-8" x="264.12" y="120.83" width="5.53" height="6.7"/><rect class="cls-8" x="264.12" y="136.44" width="5.53" height="6.7"/><rect class="cls-8" x="264.12" y="128.63" width="5.53" height="6.7"/><rect class="cls-7" x="462.08" y="119.68" width="14.07" height="24.79"/><rect class="cls-8" x="469.61" y="120.84" width="5.53" height="6.7"/><rect class="cls-8" x="469.61" y="136.45" width="5.53" height="6.7"/><rect class="cls-8" x="469.61" y="128.64" width="5.53" height="6.7"/><rect class="cls-8" x="463.08" y="120.84" width="5.53" height="6.7"/><rect class="cls-8" x="463.08" y="136.45" width="5.53" height="6.7"/><rect class="cls-8" x="463.08" y="128.64" width="5.53" height="6.7"/><rect class="cls-7" x="476.02" y="119.77" width="14.07" height="24.79"/><rect class="cls-8" x="483.56" y="120.93" width="5.53" height="6.7"/><rect class="cls-8" x="483.56" y="136.54" width="5.53" height="6.7"/><rect class="cls-8" x="483.56" y="128.73" width="5.53" height="6.7"/><rect class="cls-8" x="477.03" y="120.93" width="5.53" height="6.7"/><rect class="cls-8" x="477.03" y="136.54" width="5.53" height="6.7"/><rect class="cls-8" x="477.03" y="128.73" width="5.53" height="6.7"/><rect class="cls-7" x="510.83" y="119.72" width="14.07" height="24.79"/><rect class="cls-8" x="518.37" y="120.88" width="5.53" height="6.7"/><rect class="cls-8" x="518.37" y="136.49" width="5.53" height="6.7"/><rect class="cls-8" x="518.37" y="128.69" width="5.53" height="6.7"/><rect class="cls-8" x="511.84" y="120.88" width="5.53" height="6.7"/><rect class="cls-8" x="511.84" y="136.49" width="5.53" height="6.7"/><rect class="cls-8" x="511.84" y="128.69" width="5.53" height="6.7"/><rect class="cls-7" x="524.78" y="119.81" width="14.07" height="24.79"/><rect class="cls-8" x="532.32" y="120.97" width="5.53" height="6.7"/><rect class="cls-8" x="532.32" y="136.58" width="5.53" height="6.7"/><rect class="cls-8" x="532.32" y="128.78" width="5.53" height="6.7"/><rect class="cls-8" x="525.78" y="120.97" width="5.53" height="6.7"/><rect class="cls-8" x="525.78" y="136.58" width="5.53" height="6.7"/><rect class="cls-8" x="525.78" y="128.78" width="5.53" height="6.7"/><rect class="cls-7" x="612.68" y="119.55" width="14.07" height="24.79"/><rect class="cls-8" x="620.22" y="120.71" width="5.53" height="6.7"/><rect class="cls-8" x="620.22" y="136.33" width="5.53" height="6.7"/><rect class="cls-8" x="620.22" y="128.52" width="5.53" height="6.7"/><rect class="cls-8" x="613.68" y="120.71" width="5.53" height="6.7"/><rect class="cls-8" x="613.68" y="136.33" width="5.53" height="6.7"/><rect class="cls-8" x="613.68" y="128.52" width="5.53" height="6.7"/><rect class="cls-7" x="626.61" y="119.55" width="14.07" height="24.79"/><rect class="cls-8" x="634.15" y="120.71" width="5.53" height="6.7"/><rect class="cls-8" x="634.15" y="136.33" width="5.53" height="6.7"/><rect class="cls-8" x="634.15" y="128.52" width="5.53" height="6.7"/><rect class="cls-8" x="627.61" y="120.71" width="5.53" height="6.7"/><rect class="cls-8" x="627.61" y="136.33" width="5.53" height="6.7"/><rect class="cls-8" x="627.61" y="128.52" width="5.53" height="6.7"/><rect class="cls-7" x="561.76" y="119.77" width="14.07" height="24.79"/><rect class="cls-8" x="569.3" y="120.93" width="5.53" height="6.7"/><rect class="cls-8" x="569.3" y="136.54" width="5.53" height="6.7"/><rect class="cls-8" x="569.3" y="128.73" width="5.53" height="6.7"/><rect class="cls-8" x="562.76" y="120.93" width="5.53" height="6.7"/><rect class="cls-8" x="562.76" y="136.54" width="5.53" height="6.7"/><rect class="cls-8" x="562.76" y="128.73" width="5.53" height="6.7"/><rect class="cls-7" x="575.71" y="119.85" width="14.07" height="24.79"/><rect class="cls-8" x="583.24" y="121.01" width="5.53" height="6.7"/><rect class="cls-8" x="583.24" y="136.63" width="5.53" height="6.7"/><rect class="cls-8" x="583.24" y="128.82" width="5.53" height="6.7"/><rect class="cls-8" x="576.71" y="121.01" width="5.53" height="6.7"/><rect class="cls-8" x="576.71" y="136.63" width="5.53" height="6.7"/><rect class="cls-8" x="576.71" y="128.82" width="5.53" height="6.7"/><rect class="cls-2" x="129.07" y="162.08" width="531.04" height="4.87"/><rect class="cls-9" x="380.17" y="123.73" width="27.95" height="42.43"/><rect class="cls-10" x="382.82" y="127.16" width="8.26" height="18.45"/><rect class="cls-11" x="393.54" y="123.51" width="0.61" height="41.54"/><rect class="cls-12" x="382.82" y="154.12" width="8.26" height="8.26"/><rect class="cls-13" x="382.82" y="148.04" width="7.71" height="3.43"/><rect class="cls-10" x="379.68" y="114.23" width="28.99" height="8.73"/><rect class="cls-14" x="375.61" y="109.32" width="37.12" height="3.43"/><rect class="cls-15" x="385.41" y="92.64" width="17.46" height="16.02"/><rect class="cls-7" x="361.88" y="64.27" width="13.76" height="24.42"/><rect class="cls-8" x="369.25" y="65.41" width="5.41" height="6.6"/><rect class="cls-8" x="369.25" y="80.79" width="5.41" height="6.6"/><rect class="cls-8" x="369.25" y="73.1" width="5.41" height="6.6"/><rect class="cls-8" x="362.86" y="65.41" width="5.41" height="6.6"/><rect class="cls-8" x="362.86" y="80.79" width="5.41" height="6.6"/><rect class="cls-8" x="362.86" y="73.1" width="5.41" height="6.6"/><rect class="cls-7" x="375.73" y="64.18" width="13.76" height="24.42"/><rect class="cls-8" x="383.1" y="65.33" width="5.41" height="6.6"/><rect class="cls-8" x="383.1" y="80.71" width="5.41" height="6.6"/><rect class="cls-8" x="383.1" y="73.02" width="5.41" height="6.6"/><rect class="cls-8" x="376.71" y="65.33" width="5.41" height="6.6"/><rect class="cls-8" x="376.71" y="80.71" width="5.41" height="6.6"/><rect class="cls-8" x="376.71" y="73.02" width="5.41" height="6.6"/><rect class="cls-7" x="399.59" y="64.14" width="13.76" height="24.42"/><rect class="cls-8" x="406.96" y="65.29" width="5.41" height="6.6"/><rect class="cls-8" x="406.96" y="80.67" width="5.41" height="6.6"/><rect class="cls-8" x="406.96" y="72.98" width="5.41" height="6.6"/><rect class="cls-8" x="400.57" y="65.29" width="5.41" height="6.6"/><rect class="cls-8" x="400.57" y="80.67" width="5.41" height="6.6"/><rect class="cls-8" x="400.57" y="72.98" width="5.41" height="6.6"/><rect class="cls-7" x="413.44" y="64.06" width="13.76" height="24.42"/><rect class="cls-8" x="420.81" y="65.21" width="5.41" height="6.6"/><rect class="cls-8" x="420.81" y="80.59" width="5.41" height="6.6"/><rect class="cls-8" x="420.81" y="72.9" width="5.41" height="6.6"/><rect class="cls-8" x="414.42" y="65.21" width="5.41" height="6.6"/><rect class="cls-8" x="414.42" y="80.59" width="5.41" height="6.6"/><rect class="cls-8" x="414.42" y="72.9" width="5.41" height="6.6"/><rect class="cls-10" x="397.07" y="127.05" width="8.26" height="18.45"/><rect class="cls-12" x="397.07" y="154.01" width="8.26" height="8.26"/><rect class="cls-13" x="397.07" y="147.93" width="7.71" height="3.43"/><path class="cls-16" d="M380.09,164.26a34.75,34.75,0,0,0-.73,3.79h14.71v-3.79Z"/><path class="cls-16" d="M408,164.26a34.75,34.75,0,0,1,.73,3.79h-14.7v-3.79Z"/><path class="cls-17" d="M394.58,39.24a8.18,8.18,0,0,0-8.18,8.18h16.37A8.19,8.19,0,0,0,394.58,39.24Z"/><rect class="cls-7" x="63.6" y="70.14" width="13.59" height="23.94"/><rect class="cls-8" x="70.87" y="71.26" width="5.34" height="6.47"/><rect class="cls-8" x="70.87" y="86.34" width="5.34" height="6.47"/><rect class="cls-8" x="70.87" y="78.8" width="5.34" height="6.47"/><rect class="cls-8" x="64.56" y="71.26" width="5.34" height="6.47"/><rect class="cls-8" x="64.56" y="86.34" width="5.34" height="6.47"/><rect class="cls-8" x="64.56" y="78.8" width="5.34" height="6.47"/><rect class="cls-7" x="102.2" y="71.06" width="13.59" height="23.94"/><rect class="cls-8" x="109.48" y="72.18" width="5.34" height="6.47"/><rect class="cls-8" x="109.48" y="87.25" width="5.34" height="6.47"/><rect class="cls-8" x="109.48" y="79.71" width="5.34" height="6.47"/><rect class="cls-8" x="103.17" y="72.18" width="5.34" height="6.47"/><rect class="cls-8" x="103.17" y="87.25" width="5.34" height="6.47"/><rect class="cls-8" x="103.17" y="79.71" width="5.34" height="6.47"/><rect class="cls-7" x="57.35" y="110.49" width="13.59" height="23.94"/><rect class="cls-8" x="64.62" y="111.62" width="5.34" height="6.47"/><rect class="cls-8" x="64.62" y="126.69" width="5.34" height="6.47"/><rect class="cls-8" x="64.62" y="119.15" width="5.34" height="6.47"/><rect class="cls-8" x="58.31" y="111.62" width="5.34" height="6.47"/><rect class="cls-8" x="58.31" y="126.69" width="5.34" height="6.47"/><rect class="cls-8" x="58.31" y="119.15" width="5.34" height="6.47"/><rect class="cls-7" x="70.81" y="110.58" width="13.59" height="23.94"/><rect class="cls-8" x="78.09" y="111.7" width="5.34" height="6.47"/><rect class="cls-8" x="78.09" y="126.77" width="5.34" height="6.47"/><rect class="cls-8" x="78.09" y="119.24" width="5.34" height="6.47"/><rect class="cls-8" x="71.78" y="111.7" width="5.34" height="6.47"/><rect class="cls-8" x="71.78" y="126.77" width="5.34" height="6.47"/><rect class="cls-8" x="71.78" y="119.24" width="5.34" height="6.47"/><rect class="cls-7" x="95.53" y="110.37" width="13.59" height="23.94"/><rect class="cls-8" x="102.81" y="111.49" width="5.34" height="6.47"/><rect class="cls-8" x="102.81" y="126.57" width="5.34" height="6.47"/><rect class="cls-8" x="102.81" y="119.03" width="5.34" height="6.47"/><rect class="cls-8" x="96.49" y="111.49" width="5.34" height="6.47"/><rect class="cls-8" x="96.49" y="126.57" width="5.34" height="6.47"/><rect class="cls-8" x="96.49" y="119.03" width="5.34" height="6.47"/><rect class="cls-7" x="109" y="110.46" width="13.59" height="23.94"/><rect class="cls-8" x="116.27" y="111.58" width="5.34" height="6.47"/><rect class="cls-8" x="116.27" y="126.65" width="5.34" height="6.47"/><rect class="cls-8" x="116.27" y="119.12" width="5.34" height="6.47"/><rect class="cls-8" x="109.96" y="111.58" width="5.34" height="6.47"/><rect class="cls-8" x="109.96" y="126.65" width="5.34" height="6.47"/><rect class="cls-8" x="109.96" y="119.12" width="5.34" height="6.47"/><polygon class="cls-4" points="89.74 7.99 0 92.47 2.5 95 87.27 15.2 89.74 7.99"/><polygon class="cls-4" points="92.98 11.04 89.74 7.99 86.4 15.21 94.44 15.21 92.98 11.04"/><polygon class="cls-4" points="139.09 54.44 89.74 7.99 92.22 15.2 137.48 57.8 139.09 54.44"/></svg>