<?xml version="1.0" encoding="utf-8"?>
<!-- Generator: Adobe Illustrator 23.0.1, SVG Export Plug-In . SVG Version: 6.00 Build 0)  -->
<svg version="1.1" id="Layer_1" xmlns="http://www.w3.org/2000/svg" xmlns:xlink="http://www.w3.org/1999/xlink" x="0px" y="0px"
	 viewBox="0 0 453.54 368.5" style="enable-background:new 0 0 453.54 368.5;" xml:space="preserve">
<style type="text/css">
	.st0{fill:#185226;}
	.st1{fill:#574434;}
	.st2{fill:#413226;}
	.st3{opacity:0.3;fill:#1E1E1C;}
	.st4{fill:#B7B5A8;}
	.st5{fill:none;}
	.st6{opacity:0.2;}
	.st7{fill:#83837F;}
</style>
<g>
	<path class="st0" d="M164.19,255.43c-63.82,9.35-85.92,6.45-95.27-32.84c0,0-48.6-10.91-26.78-68.28c0,0-33.87-30.39-3.16-87.62
		c22.12-41.21,68.6-20.58,68.6-20.58s8.11-41.78,56.75-41.16s60.07,23.7,60.07,23.7s40.33-13.1,66.52,21.83s-5.61,66.1-5.61,66.1
		s33.65,12.3,33.67,38.04c0.03,33.81-24.76,47.36-37.23,49.01c0,0,12.07,36.54-15.77,53.89c-35.04,21.83-79.87-5.07-79.87-5.07
		L164.19,255.43z"/>
	<path class="st1" d="M150.35,248.18c-0.35,0-0.68-0.03-1.02-0.03l-9.76,115.41h64.7l-9.55-112.92c-0.34-4.05-7.53-6.96-14.26-5.54
		C171.09,247.08,160.95,248.18,150.35,248.18z"/>
	<path class="st2" d="M194.72,250.64c-0.34-4.05-7.53-6.96-14.26-5.54c-9.37,1.98-19.5,3.08-30.1,3.08c-0.35,0-0.68-0.03-1.02-0.03
		l-9.76,115.41h32.35V264.7c0-2.61,2.97-4.93,7.37-5.76l15.88-2.98L194.72,250.64z"/>
	<path class="st3" d="M277.01,36.81L277.01,36.81c-24.52-17.28-52.6-8.16-52.6-8.16s-11.43-23.07-60.07-23.7
		c-48.64-0.62-56.75,41.16-56.75,41.16s-46.48-20.63-68.6,20.58c-30.72,57.23,3.16,87.62,3.16,87.62
		c-14.96,39.32,3.16,56.82,16.05,63.93C42.15,154.31,83,135.5,83,135.5s-29.89-56.41,49.32-56.41c0,0,13.95-58.28,85.93-33.38
		C218.24,45.71,233.41,34.64,277.01,36.81z"/>
</g>
<g>
	<path class="st4" d="M219.81,96.94c-1.29-9.17-0.63-8.63,7.91-3.24c8.54,5.4,86.72,75,87.38,182.38c0,0-1.97,23.2-16.43,60.97
		c0,0,3.11,5.71,1.97,21.58c-0.7,9.72-26.61,2.49-26.61,2.49l-0.68-32.11c0,0,29.17-42.82,13.4-94.62s-22.82-70.06-32.02-81.94
		C245.53,140.6,219.81,96.94,219.81,96.94z"/>
	<g>
		<path class="st5" d="M315.1,276.09C314.44,168.71,236.26,99.1,227.72,93.7c-8.54-5.4-9.2-5.94-7.91,3.24
			c9.41,5.93,80.73,104.62,78.86,162.49c-1.87,57.87-20.53,70.93-20.53,70.93s0.47,29.32,4.34,32.58l0,0
			c7.63,1.24,17.73,1.72,18.17-4.3c1.14-15.88-1.97-21.58-1.97-21.58C313.13,299.29,315.1,276.09,315.1,276.09z"/>
		<path class="st6" d="M278.13,330.36c0,0,18.67-13.07,20.53-70.93c1.87-57.87-69.45-156.56-78.86-162.49
			c0,0,25.73,43.65,34.92,55.53c9.2,11.87,16.25,30.13,32.02,81.94s-13.4,94.62-13.4,94.62l0.68,32.11c0,0,3.75,1.05,8.44,1.81l0,0
			C278.61,359.69,278.13,330.36,278.13,330.36z"/>
	</g>
	<path class="st4" d="M243.4,89.81c-4.6,0-19.49,6.05-62.04,59.47s-52.41,129.5-39.27,158.64c13.14,29.14,17.74,36.69,17.74,36.69
		l-1.18,18.42c6.06,4.92,29.01,0.69,29.01,0.69c-2.35-14.48-1.75-28.77-4.38-34.7s-40.24-43.05-8.2-125.73
		c0,0,20.5-46.46,57.68-100.42C232.75,102.88,248,89.81,243.4,89.81z"/>
	<g>
		<path class="st5" d="M175.47,333.91c0,0,0,0-14.89-28c-14.89-28-5.27-72.24,0-88.48c5.27-16.24,43.45-91.28,79.29-127.62
			c-4.6,0-19.49,6.05-62.04,59.47s-52.41,129.5-39.27,158.64c13.14,29.14,17.74,36.69,17.74,36.69l-1.18,18.42
			c3.24,2.63,11.32,2.64,18.14,2.09L175.47,333.91z"/>
		<path class="st5" d="M239.87,89.81l-1.31,4.09C240.54,91.63,241.58,89.81,239.87,89.81z"/>
	</g>
	<path class="st6" d="M164.11,217.43c-5.27,16.24-14.89,60.48,0,88.48c0.72,1.35,1.4,2.64,2.06,3.86l0,0l4.13,12
		c0.31,0.75,5.19,10.63,5.48,11.45c1.47,4.26,2.16,8.52,2.4,12.37l-1.39,19.52c5.91-0.48,10.87-1.4,10.87-1.4
		c-2.35-14.48-1.75-28.77-4.38-34.7c-2.63-5.94-40.24-43.05-8.2-125.73c0,0,20.5-46.46,57.68-100.42c0,0,6-5.14,9.33-8.97l1.31-4.09
		C207.56,126.15,169.38,201.19,164.11,217.43z"/>
	<g>
		<path class="st7" d="M337.34,361.63c0.9-1.32,2.22-4.66,2.91-7.4c0.7-2.74-0.35-6.77-2.33-8.94l-7.99-8.78
			c-1.98-2.17-6.04-4.26-9.03-4.63l-10.15-1.26c-2.99-0.37-5.44,1.68-5.44,4.56v23.55c0,2.88,2.47,5.24,5.48,5.25l19.42,0.05
			C333.23,364.04,336.44,362.96,337.34,361.63L337.34,361.63z M337.34,361.63"/>
		<path class="st7" d="M311.84,329.24l2.91,0.27c3,0.29,6.56-1.59,7.9-4.17l0.57-1.09c1.34-2.58,1.35-6.27,0.01-8.21
			c-1.34-1.93-4.49-3.29-7.01-3.03c-2.52,0.27-5.76,1.56-7.2,2.86c-1.45,1.31-2.63,4.73-2.63,7.61
			C306.38,326.37,308.84,328.96,311.84,329.24L311.84,329.24z M311.84,329.24"/>
		<path class="st7" d="M324.6,330.87c2.03,0.65,5.13,3.1,6.88,5.45l6.77,9.06c1.75,2.35,5.63,3.91,8.61,3.49l6.38-0.91
			c2.98-0.42,5.78-3.1,6.21-5.95l1.73-11.4c0.43-2.85-1.37-6.32-4.01-7.71L345.95,317c-2.64-1.39-7.07-1.6-9.85-0.47l-3.54,1.44
			c-2.77,1.13-6.39,4.03-8.04,6.44l-0.61,0.89C322.26,327.72,322.57,330.22,324.6,330.87L324.6,330.87z M324.6,330.87"/>
		<path class="st7" d="M342.74,363.97h26.6c3.02,0,3.8-1.72,1.74-3.82l-8.28-8.44c-2.06-2.1-6.17-3.39-9.13-2.85l-4.79,0.86
			c-2.96,0.53-6.4,3.12-7.63,5.75l-1.75,3.73C338.26,361.81,339.72,363.97,342.74,363.97L342.74,363.97z M342.74,363.97"/>
		<path class="st7" d="M382.05,364.7l8.3-0.03c3.02-0.01,7.24-1.68,9.39-3.69l6.98-6.56c2.15-2.02,2.33-5.48,0.39-7.69l-14-16.01
			c-1.93-2.21-5.9-3.43-8.82-2.7l-17.03,4.23c-2.92,0.73-5.68,3.65-6.14,6.49l-0.47,2.9c-0.46,2.85,0.81,6.93,2.82,9.08l9.44,10.09
			C374.93,362.97,379.04,364.72,382.05,364.7L382.05,364.7z M382.05,364.7"/>
		<path class="st7" d="M417.11,352.56l-1.35-0.2c-2.98-0.44-7.14,0.89-9.23,2.96l-5.65,5.57c-2.1,2.06-1.35,3.76,1.67,3.76h16.38
			c3.02,0,5.48-0.7,5.48-1.55c0-0.86-0.42-3.39-0.94-5.64C422.95,355.2,420.1,353,417.11,352.56L417.11,352.56z M417.11,352.56"/>
		<path class="st7" d="M395.16,332.25c1.34,1.89,4.37,1.98,6.74,0.19l6.38-4.8c2.37-1.78,2.39-4.73,0.05-6.54l-4.14-3.21
			c-2.34-1.82-6.46-2.24-9.15-0.95l-0.52,0.25c-2.69,1.29-3.94,3.81-2.76,5.6c1.18,1.79,1.88,3.88,1.56,4.64
			C392.99,328.19,393.82,330.36,395.16,332.25L395.16,332.25z M395.16,332.25"/>
		<path class="st7" d="M416.23,351.07l2.28,0.42c2.96,0.55,7.18,0.45,9.37-0.21c2.2-0.67,3.87-3.56,3.73-6.44l-0.25-4.96
			c-0.15-2.88-2.49-6.25-5.21-7.49l-9.05-4.14c-2.72-1.25-6.87-0.79-9.22,1.01l-5.12,3.92c-2.35,1.8-2.66,5.05-0.69,7.23l5.18,5.7
			C409.23,348.29,413.28,350.52,416.23,351.07L416.23,351.07z M416.23,351.07"/>
		<path class="st7" d="M443.32,328.16l-6.72,2.7c-2.76,1.15-4.93,4.43-4.67,7.3l0.75,8.87c0.26,2.87-1.84,5.66-4.6,6.2
			c-2.76,0.54-4.2,3.21-3.21,5.92l0.54,1.47c0.99,2.72,4.27,4.92,7.28,4.88l10.17-0.11c3.02-0.04,5.94-2.42,5.94-5.3v-28.79
			C448.8,328.43,446.09,327.01,443.32,328.16L443.32,328.16z M443.32,328.16"/>
	</g>
	<g>
		<path class="st7" d="M146.85,321.63c-1.89-0.39-4.66,0.89-6.17,2.86c-1.51,1.97-5.22,3.36-8.24,3.08l-8.99-0.8
			c-3.02-0.27-6.45,1.89-7.61,4.8l-3.42,8.56c-1.16,2.91,0.16,6.34,2.93,7.63l9.91,4.61c2.77,1.29,7.14,0.97,9.7-0.71l3.79-2.48
			c2.57-1.68,6.21-2.01,8.1-0.73c1.89,1.28,3.43-0.25,3.43-3.4v-16.99C150.28,324.92,148.74,322.02,146.85,321.63L146.85,321.63z
			 M146.85,321.63"/>
		<path class="st7" d="M12.06,332.71l20.79,4.63c2.97,0.67,6.68-1.05,8.12-3.83l4.43-8.43c1.44-2.77,0.23-5.64-2.73-6.37l-8.82-2.18
			c-2.95-0.73-7.75-2.07-10.65-2.98l-11.25-3.39c-2.9-0.91-5.74,0.92-5.74,4.07v11.54C6.21,328.92,9.1,332.04,12.06,332.71
			L12.06,332.71z M12.06,332.71"/>
		<path class="st7" d="M48.22,327.54l1.13,4.18c0.82,3.03,3.76,6.56,6.53,7.84l7.75,3.57c2.77,1.28,7.29,1.23,10.03-0.12l3.34-1.64
			c2.75-1.34,4.79-5.01,4.55-8.15l-0.28-3.61c-0.25-3.14-2.83-4.99-5.75-4.1l-2.73,0.82c-2.92,0.88-7.69,0.92-10.62,0.09
			l-10.12-2.88C49.12,322.71,47.39,324.51,48.22,327.54L48.22,327.54z M48.22,327.54"/>
		<path class="st7" d="M88.9,330.01l21.84-5.82c2.94-0.78,4.02-2.73,2.41-4.33c-1.62-1.6-5.41-3.19-8.42-3.54L91,314.72
			c-3.02-0.35-5.77,1.92-6.13,5.05l-0.68,5.98C83.85,328.88,85.96,330.79,88.9,330.01L88.9,330.01z M88.9,330.01"/>
		<path class="st7" d="M84.14,345.44c0.7,3.07,3.72,5.95,6.72,6.42l9.85,1.53c3,0.47,6.36-1.55,7.46-4.49l6.19-16.52
			c1.1-2.93,1.45-6.04,0.77-6.9c-0.67-0.86-3.61-0.84-6.52,0.04l-21.83,6.62c-2.91,0.89-4.73,4.12-4.03,7.18L84.14,345.44z
			 M84.14,345.44"/>
		<path class="st7" d="M145.07,349.52c-1.53-0.94-4.88-0.33-7.44,1.35l-3.67,2.4c-2.57,1.68-6.08,2.66-7.79,2.19
			c-1.72-0.47-3.83,0.99-4.69,3.26c-0.86,2.27,0.91,4.13,3.95,4.13h17.18c3.04,0,5.46-2.57,5.39-5.72l-0.01-0.18
			C147.91,353.79,146.6,350.45,145.07,349.52L145.07,349.52z M145.07,349.52"/>
		<path class="st7" d="M118.26,350.42l-1.35-0.54c-2.84-1.13-6.36-0.36-7.85,1.7c-1.48,2.07-5.13,3.26-8.11,2.66l-3.27-0.66
			c-2.98-0.6-4.98,1.24-4.44,4.09c0.54,2.85,3.46,5.19,6.5,5.19h13.45c3.04,0,6.57-2.33,7.87-5.18l0.01-0.01
			C122.35,354.8,121.09,351.55,118.26,350.42L118.26,350.42z M118.26,350.42"/>
		<path class="st7" d="M88.09,362.84c3.04,0,4.84-2.48,4.01-5.51l-0.12-0.43c-0.83-3.03-3.23-5.51-5.33-5.51
			c-2.1,0-4.3-2.46-4.9-5.45c-0.59-3-3.33-4.37-6.09-3.05l-5.27,2.53c-2.75,1.32-7.12,1.06-9.71-0.59l-3.81-2.42
			c-2.59-1.65-5.3-0.49-6.03,2.56l-2.94,12.32c-0.73,3.05,1.16,5.56,4.19,5.56L88.09,362.84L88.09,362.84z M88.09,362.84"/>
		<path class="st7" d="M43.18,340.41l1.56-0.48c2.91-0.89,4.81-4.08,4.22-7.09c-0.59-3.01-2.51-3.37-4.26-0.8l-3.62,5.32
			C39.32,339.93,40.27,341.3,43.18,340.41L43.18,340.41z M43.18,340.41"/>
		<path class="st7" d="M37.4,342.74c-2.95,0.73-5.72,0.28-6.15-1c-0.43-1.28-2.48-2.97-4.56-3.76c-2.08-0.79-3.93,1.14-4.13,4.28
			l-0.94,14.87c-0.2,3.14,2.12,5.71,5.16,5.71h13.06c3.04,0,6.13-2.49,6.88-5.55c0,0,4.17-16.99,4.17-17.88L37.4,342.74z
			 M37.4,342.74"/>
		<path class="st7" d="M11.93,362.84h2.68c3.04,0,5.72-2.57,5.97-5.7l1.25-15.73c0.25-3.14-2-6.12-4.99-6.64l-5.44-0.85
			c-2.99-0.52-5.91,1.64-5.91,4.79v18.42C5.49,360.27,8.89,362.84,11.93,362.84L11.93,362.84z M11.93,362.84"/>
	</g>
</g>
</svg>
